<?xml version="1.0" standalone="no"?>
<!DOCTYPE svg PUBLIC "-//W3C//DTD SVG 20010904//EN"
 "http://www.w3.org/TR/2001/REC-SVG-20010904/DTD/svg10.dtd">
<svg version="1.0" xmlns="http://www.w3.org/2000/svg"
 width="631.000000pt" height="255.000000pt" viewBox="0 0 631.000000 255.000000"
 preserveAspectRatio="xMidYMid meet">

<g transform="translate(0.000000,255.000000) scale(0.100000,-0.100000)"
fill="#000000" stroke="none">
<path d="M1447 2120 c-685 -115 -667 -111 -714 -180 -22 -31 -23 -43 -23 -195
l0 -162 -192 -33 c-106 -18 -204 -38 -218 -45 -35 -18 -65 -54 -79 -94 -15
-45 -15 -820 -1 -873 17 -58 55 -96 113 -112 29 -8 332 -61 674 -118 599 -99
624 -102 664 -88 26 9 54 30 73 53 l31 39 3 224 c2 123 4 224 5 224 2 0 67
-11 145 -25 78 -14 162 -25 185 -25 54 0 106 26 134 69 l23 34 0 657 0 657
-22 33 c-29 41 -82 70 -128 69 -19 -1 -322 -49 -673 -109z m708 24 c44 -17 45
-28 45 -669 0 -674 1 -666 -62 -683 -28 -7 -225 18 -335 43 l-23 5 0 381 c0
416 -1 423 -59 472 -55 46 -75 45 -491 -22 -212 -35 -397 -65 -412 -68 l-28
-5 0 146 c0 143 1 148 25 171 13 14 28 25 32 25 4 0 285 47 623 104 632 107
657 110 685 100z m-480 -519 l25 -24 0 -376 c0 -354 -1 -376 -17 -371 -10 3
-196 35 -413 71 -469 77 -435 70 -460 97 -19 21 -20 35 -20 259 l0 237 68 12
c37 6 209 35 382 64 372 64 401 66 435 31z m-965 -356 c0 -260 4 -278 68 -323
33 -22 89 -34 477 -98 l440 -74 3 -217 2 -218 -24 -24 c-16 -16 -36 -25 -56
-25 -26 0 -1194 191 -1258 205 -13 3 -35 17 -48 30 l-24 24 0 420 0 420 23 26
c19 22 41 29 182 54 88 16 172 29 188 30 l27 1 0 -231z"/>
<path d="M5677 1598 c-27 -10 -45 -46 -38 -78 9 -49 75 -66 111 -30 52 52 -2
132 -73 108z"/>
<path d="M4719 1571 c-94 -30 -99 -47 -99 -316 l0 -215 60 0 60 0 0 145 0 145
45 0 45 0 0 40 0 40 -45 0 c-30 0 -45 4 -45 13 0 25 25 46 60 49 32 3 35 6 41
43 4 22 3 44 -1 49 -12 12 -90 17 -121 7z"/>
<path d="M5061 1525 c-17 -20 -31 -38 -31 -40 0 -3 15 -5 33 -5 23 1 45 12 77
40 l45 39 -46 1 c-41 0 -51 -4 -78 -35z"/>
<path d="M5860 1295 l0 -255 65 0 65 0 0 255 0 255 -65 0 -65 0 0 -255z"/>
<path d="M2500 1290 l0 -250 65 0 65 0 0 70 0 70 78 0 c103 0 157 26 190 90
38 76 26 178 -29 226 -40 35 -85 44 -230 44 l-139 0 0 -250z m254 136 c42 -17
55 -60 32 -104 -16 -31 -46 -42 -117 -42 l-39 0 0 80 0 80 45 0 c25 0 61 -6
79 -14z"/>
<path d="M4293 1423 c-95 -33 -149 -153 -112 -250 23 -61 108 -123 169 -123
29 0 30 1 30 48 0 43 -3 49 -29 59 -16 6 -34 20 -40 32 -12 21 -11 21 130 21
l141 0 -4 54 c-11 134 -146 209 -285 159z m147 -110 l22 -28 -41 -3 c-23 -2
-59 -2 -82 0 l-41 3 22 28 c17 21 30 27 60 27 30 0 43 -6 60 -27z"/>
<path d="M3013 1423 c-8 -3 -13 -23 -13 -49 l0 -44 50 1 c36 1 56 -4 70 -16
39 -35 26 -45 -56 -45 -125 0 -183 -45 -171 -133 13 -95 140 -139 221 -76 l26
20 0 -20 c0 -19 6 -21 60 -21 l60 0 0 154 c0 142 -2 155 -22 181 -12 15 -36
34 -54 41 -32 13 -145 18 -171 7z m127 -238 c0 -53 -70 -84 -115 -52 -13 10
-16 21 -11 40 6 27 22 33 89 36 33 1 37 -2 37 -24z"/>
<path d="M3395 1416 c-70 -31 -102 -100 -93 -196 13 -131 143 -203 243 -134
l37 25 -6 -38 c-8 -41 -37 -73 -67 -73 -16 0 -19 -8 -19 -50 l0 -50 37 0 c57
0 119 35 148 84 24 42 25 48 25 244 l0 202 -60 0 c-58 0 -60 -1 -60 -25 l0
-26 -29 22 c-37 27 -114 35 -156 15z m148 -98 c44 -33 37 -127 -13 -153 -54
-28 -109 10 -110 76 0 71 71 115 123 77z"/>
<path d="M3740 1293 c0 -157 10 -191 69 -230 44 -30 121 -31 174 -3 l37 20 0
-20 c0 -18 7 -20 60 -20 l60 0 0 195 0 195 -65 0 -65 0 0 -99 c0 -54 -5 -112
-11 -130 -18 -52 -72 -68 -109 -31 -18 18 -20 33 -20 140 l0 120 -65 0 -65 0
0 -137z"/>
<path d="M4943 1424 c-8 -3 -13 -24 -13 -50 l0 -44 54 0 c45 0 58 -4 70 -22 9
-12 16 -26 16 -30 0 -5 -37 -8 -82 -8 -120 0 -168 -34 -168 -121 0 -101 134
-154 222 -89 l28 21 0 -21 c0 -18 6 -20 60 -20 l60 0 0 145 c0 160 -7 188 -57
220 -28 19 -162 32 -190 19z m127 -234 c0 -31 -44 -70 -78 -70 -35 0 -55 20
-50 52 3 24 30 35 91 37 31 1 37 -2 37 -19z"/>
<path d="M5362 1417 c-100 -32 -151 -167 -103 -273 28 -62 80 -97 152 -102 85
-6 125 4 170 45 l40 36 -46 29 -46 29 -26 -21 c-59 -47 -133 -9 -133 69 0 64
46 106 100 91 21 -5 29 -1 52 29 15 20 28 41 28 47 0 28 -123 42 -188 21z"/>
<path d="M5640 1235 l0 -195 65 0 65 0 0 195 0 195 -65 0 -65 0 0 -195z"/>
</g>
</svg>
